<?xml version="1.0" encoding="UTF-8"?>
<svg version="1.1" xmlns="http://www.w3.org/2000/svg" width="192" height="192">
<path d="M0 0 C63.36 0 126.72 0 192 0 C192 63.36 192 126.72 192 192 C128.64 192 65.28 192 0 192 C0 128.64 0 65.28 0 0 Z " fill="#052133" transform="translate(0,0)"/>
<path d="M0 0 C1.08829102 0.00572021 2.17658203 0.01144043 3.29785156 0.01733398 C22.0858194 0.43066928 38.56185839 8.10826787 51.75 21.5 C52.47058594 22.221875 53.19117188 22.94375 53.93359375 23.6875 C66.10381739 36.57091254 72.15392051 53.40338817 72 70.9375 C72.00773438 71.81470703 72.01546875 72.69191406 72.0234375 73.59570312 C71.96478979 93.49194013 63.50979973 110.48709359 49.75 124.5 C49.06164062 125.21285156 48.37328125 125.92570312 47.6640625 126.66015625 C38.26059808 135.73152806 26.19051914 140.20379407 13.75 143.5 C13.12085693 143.6750708 12.49171387 143.8501416 11.84350586 144.03051758 C-5.73986735 147.97370436 -24.20789101 142.45233396 -39.25 133.5 C-42.79924289 131.04358918 -46.04941854 128.39283325 -49.25 125.5 C-49.94609375 124.88511719 -50.6421875 124.27023438 -51.359375 123.63671875 C-64.8298724 111.02770665 -71.78411776 94.76985291 -72.46875 76.53125 C-72.96566683 55.86249886 -68.38040816 39.13074107 -54.25 23.5 C-53.31027344 22.43845703 -53.31027344 22.43845703 -52.3515625 21.35546875 C-38.7958827 6.88685541 -19.53737648 -0.1208466 0 0 Z " fill="#061F30" transform="translate(95.25,25.5)"/>
<path d="M0 0 C1.08829102 0.00572021 2.17658203 0.01144043 3.29785156 0.01733398 C22.0858194 0.43066928 38.56185839 8.10826787 51.75 21.5 C52.47058594 22.221875 53.19117188 22.94375 53.93359375 23.6875 C66.10381739 36.57091254 72.15392051 53.40338817 72 70.9375 C72.00773438 71.81470703 72.01546875 72.69191406 72.0234375 73.59570312 C71.96478979 93.49194013 63.50979973 110.48709359 49.75 124.5 C49.06164062 125.21285156 48.37328125 125.92570312 47.6640625 126.66015625 C38.26059808 135.73152806 26.19051914 140.20379407 13.75 143.5 C13.12085693 143.6750708 12.49171387 143.8501416 11.84350586 144.03051758 C-5.73986735 147.97370436 -24.20789101 142.45233396 -39.25 133.5 C-42.79924289 131.04358918 -46.04941854 128.39283325 -49.25 125.5 C-49.94609375 124.88511719 -50.6421875 124.27023438 -51.359375 123.63671875 C-64.8298724 111.02770665 -71.78411776 94.76985291 -72.46875 76.53125 C-72.96566683 55.86249886 -68.38040816 39.13074107 -54.25 23.5 C-53.31027344 22.43845703 -53.31027344 22.43845703 -52.3515625 21.35546875 C-38.7958827 6.88685541 -19.53737648 -0.1208466 0 0 Z M-44.25 32.5 C-56.96992177 47.5763534 -59.65848287 63.31157323 -58.25 82.5 C-57.08254974 90.46780357 -53.65434073 97.81925845 -49.25 104.5 C-48.77046875 105.23734375 -48.2909375 105.9746875 -47.796875 106.734375 C-39.31216771 118.67886585 -25.77460911 126.80132678 -11.58984375 129.99609375 C6.42751901 132.71450287 22.29791634 127.85930578 37.26953125 117.80859375 C47.41753236 109.50204452 55.33092828 96.54073272 57.46484375 83.55078125 C59.04590557 66.63558564 57.76416953 50.63614917 46.67578125 36.9375 C44.4355425 34.38157395 42.13011149 31.92572339 39.75 29.5 C39.19570312 28.92121094 38.64140625 28.34242187 38.0703125 27.74609375 C32.86567001 22.78744183 26.30122937 20.25317487 19.75 17.5 C18.93789062 17.13390625 18.12578125 16.7678125 17.2890625 16.390625 C-4.19278366 8.85545435 -28.60013267 17.19625928 -44.25 32.5 Z " fill="#F9FAFA" transform="translate(95.25,25.5)"/>
<path d="M0 0 C6.7319268 2.81156943 10.62997261 9.00088169 13.66796875 15.41015625 C13.78943187 18.75998123 11.94944941 20.58346741 9.9921875 23.20703125 C9.27546875 24.191875 8.55875 25.17671875 7.8203125 26.19140625 C7.13453125 26.9390625 6.44875 27.68671875 5.7421875 28.45703125 C4.7521875 28.45703125 3.7621875 28.45703125 2.7421875 28.45703125 C1.31591797 26.83642578 1.31591797 26.83642578 -0.140625 24.58984375 C-0.66785156 23.78675781 -1.19507812 22.98367187 -1.73828125 22.15625 C-2.28097656 21.30675781 -2.82367188 20.45726563 -3.3828125 19.58203125 C-3.93324219 18.74027344 -4.48367187 17.89851563 -5.05078125 17.03125 C-9.01277282 10.94711062 -9.01277282 10.94711062 -10.2578125 8.45703125 C-10.2578125 25.61703125 -10.2578125 42.77703125 -10.2578125 60.45703125 C-3.8228125 51.54703125 -3.8228125 51.54703125 2.7421875 42.45703125 C5.61729652 38.52898302 8.50122723 34.60875573 11.40063477 30.69873047 C14.46613302 26.56007644 17.50246973 22.404761 20.4921875 18.2109375 C21.109729 17.35234131 21.72727051 16.49374512 22.36352539 15.60913086 C23.53834641 13.9744256 24.70480354 12.33366274 25.86108398 10.68579102 C29.77330336 5.27090373 33.72403122 0.3567853 40.55078125 -1.171875 C46.70502262 -1.01641868 51.79554421 -0.44196051 56.7421875 3.45703125 C62.63118222 9.84749058 63.90612601 14.82017855 63.98046875 23.4375 C63.9885405 24.32431961 63.99661224 25.21113922 64.00492859 26.12483215 C64.01875931 28.00353039 64.02948599 29.88225365 64.03735352 31.76098633 C64.05451925 34.61654174 64.09840828 37.47092481 64.14257812 40.32617188 C64.15270983 42.15493944 64.16122444 43.98371681 64.16796875 45.8125 C64.18547684 46.6586235 64.20298492 47.50474701 64.22102356 48.37651062 C64.19669208 55.11783702 62.45621963 60.37398598 57.9609375 65.48046875 C57.11015625 66.14949219 57.11015625 66.14949219 56.2421875 66.83203125 C55.39140625 67.52425781 55.39140625 67.52425781 54.5234375 68.23046875 C49.93380501 71.39087358 46.18835001 72.13125859 40.62890625 72.02734375 C33.78249707 70.67473788 29.38863724 64.7191501 25.6171875 59.20703125 C24.30034356 57.12418005 23.70148226 56.04910741 23.87109375 53.58203125 C25.09148651 50.60492962 26.8771242 48.27711565 28.8046875 45.70703125 C29.53816406 44.7221875 30.27164063 43.73734375 31.02734375 42.72265625 C31.59324219 41.975 32.15914062 41.22734375 32.7421875 40.45703125 C38.82495003 46.53979378 43.0689633 54.23477567 47.7421875 61.45703125 C47.7421875 43.96703125 47.7421875 26.47703125 47.7421875 8.45703125 C44.7721875 12.74703125 41.8021875 17.03703125 38.7421875 21.45703125 C36.66883473 24.36121318 34.59043578 27.25866971 32.4921875 30.14453125 C31.38010873 31.6783132 30.26813273 33.21216968 29.15625 34.74609375 C28.59583008 35.51856445 28.03541016 36.29103516 27.45800781 37.08691406 C25.72185412 39.4851184 23.99272233 41.8882357 22.265625 44.29296875 C4.99610685 68.33007157 4.99610685 68.33007157 -1.2578125 71.45703125 C-8.45439613 72.42887759 -13.54705124 71.65520122 -19.37890625 67.2421875 C-23.6141135 63.21830036 -25.9586866 58.31262951 -26.41171265 52.47332764 C-26.42457306 51.77797913 -26.43743347 51.08263062 -26.45068359 50.36621094 C-26.46674652 49.57148376 -26.48280945 48.77675659 -26.49935913 47.95794678 C-26.54420544 44.33118933 -26.58487189 40.70460712 -26.60791016 37.07763672 C-26.62445067 35.17093687 -26.65171562 33.26429854 -26.68994141 31.35791016 C-26.74500432 28.59375188 -26.7666281 25.83104076 -26.78125 23.06640625 C-26.80391937 22.2234198 -26.82658875 21.38043335 -26.84994507 20.51190186 C-26.8280935 14.32196259 -25.17469624 10.25639268 -21.2578125 5.45703125 C-14.9076738 -0.80958034 -8.72820853 -2.09899824 0 0 Z " fill="#FAFAFB" transform="translate(76.2578125,62.54296875)"/>
<path d="M0 0 C0.99 0.99 1.98 1.98 3 3 C2.67 3.66 2.34 4.32 2 5 C1.91008908 6.54227856 1.88243039 8.08840895 1.88647461 9.63330078 C1.88655014 10.59414581 1.88662567 11.55499084 1.88670349 12.54495239 C1.89186478 13.58457123 1.89702606 14.62419006 1.90234375 15.6953125 C1.90446617 17.28918289 1.90446617 17.28918289 1.90663147 18.91525269 C1.91224166 22.31853009 1.92479591 25.72174238 1.9375 29.125 C1.94251369 31.42838447 1.94707682 33.73176997 1.95117188 36.03515625 C1.9622144 41.69012649 1.97896248 47.34505859 2 53 C1.01 53.495 1.01 53.495 0 54 C0 36.18 0 18.36 0 0 Z " fill="#203948" transform="translate(65,70)"/>
</svg>
